<svg xmlns="http://www.w3.org/2000/svg" xmlns:xlink="http://www.w3.org/1999/xlink" viewBox="0 0 644.05 346.79"><defs><linearGradient id="Degradado_sin_nombre_928" x1="29.93" y1="147.09" x2="255.78" y2="147.09" gradientUnits="userSpaceOnUse"><stop offset="0" stop-color="#3597ff"/><stop offset=".58" stop-color="#4c53de"/><stop offset=".73" stop-color="#4d4edb"/><stop offset=".9" stop-color="#5140d1"/><stop offset="1" stop-color="#5434ca"/></linearGradient><linearGradient id="Degradado_sin_nombre_927" x1="111.98" y1="5029" x2="228.24" y2="5145.26" gradientTransform="matrix(1 0 0 -1 0 5118)" gradientUnits="userSpaceOnUse"><stop offset="0" stop-color="#2b55e3"/><stop offset=".27" stop-color="#247aff"/><stop offset="1" stop-color="#46edff"/></linearGradient><linearGradient id="Degradado_sin_nombre_926" x1="200.98" y1="116.39" x2="488.33" y2="116.39" gradientUnits="userSpaceOnUse"><stop offset="0" stop-color="#6418b0"/><stop offset=".01" stop-color="#661ab3"/><stop offset=".08" stop-color="#792acf"/><stop offset=".16" stop-color="#8836e4"/><stop offset=".25" stop-color="#933ff3"/><stop offset=".35" stop-color="#9944fc"/><stop offset=".5" stop-color="#9b46ff"/><stop offset="1" stop-color="#b880ff"/></linearGradient><linearGradient id="Degradado_sin_nombre_925" x1="461" y1="27.38" x2="577.58" y2="143.97" gradientUnits="userSpaceOnUse"><stop offset="0" stop-color="#8127ff"/><stop offset=".43" stop-color="#bd37ff"/><stop offset=".63" stop-color="#cd3aff"/><stop offset="1" stop-color="#f441ff"/></linearGradient><linearGradient id="Degradado_sin_nombre_924" x1="379.26" y1="174.75" x2="550.14" y2="174.75" gradientUnits="userSpaceOnUse"><stop offset="0" stop-color="#ffa9ff"/><stop offset=".28" stop-color="#ff67ff"/><stop offset=".48" stop-color="#ff3dff"/><stop offset=".58" stop-color="#ff2dff"/><stop offset=".68" stop-color="#f928fa"/><stop offset=".81" stop-color="#e81bea"/><stop offset=".96" stop-color="#cb06d1"/><stop offset="1" stop-color="#c300ca"/></linearGradient><linearGradient id="linear-gradient" x1="198.89" y1="264.8" x2="-14.84" y2="331.5" gradientUnits="userSpaceOnUse"><stop offset="0" stop-color="#2b55e3"/><stop offset=".72" stop-color="#247aff"/><stop offset="1" stop-color="#46edff"/></linearGradient><linearGradient id="Degradado_sin_nombre_927-2" x1="203.89" y1="280.82" x2="-9.84" y2="347.52" xlink:href="#Degradado_sin_nombre_927"/><linearGradient id="Degradado_sin_nombre_927-3" x1="209.14" y1="297.65" x2="-4.59" y2="364.34" xlink:href="#Degradado_sin_nombre_927"/><linearGradient id="Degradado_sin_nombre_927-4" x1="213.37" y1="311.19" x2="-.36" y2="377.89" xlink:href="#Degradado_sin_nombre_927"/><linearGradient id="Degradado_sin_nombre_926-2" x1="234.57" y1="343.92" x2="577.9" y2="237.06" xlink:href="#Degradado_sin_nombre_926"/><linearGradient id="Degradado_sin_nombre_926-3" x1="238.83" y1="357.59" x2="582.15" y2="250.73" xlink:href="#Degradado_sin_nombre_926"/><linearGradient id="linear-gradient-2" x1="244.1" y1="374.54" x2="587.43" y2="267.68" gradientUnits="userSpaceOnUse"><stop offset="0" stop-color="#8127ff"/><stop offset=".4" stop-color="#bd37ff"/><stop offset=".61" stop-color="#cd3aff"/><stop offset="1" stop-color="#f441ff"/></linearGradient><linearGradient id="Degradado_sin_nombre_925-2" x1="248.62" y1="389.05" x2="591.95" y2="282.19" xlink:href="#Degradado_sin_nombre_925"/><linearGradient id="Degradado_sin_nombre_925-3" x1="251.71" y1="398.98" x2="595.04" y2="292.12" xlink:href="#Degradado_sin_nombre_925"/><linearGradient id="Degradado_sin_nombre_925-4" x1="254.07" y1="406.57" x2="597.4" y2="299.71" xlink:href="#Degradado_sin_nombre_925"/><linearGradient id="Degradado_sin_nombre_925-5" x1="257.41" y1="417.29" x2="600.74" y2="310.43" xlink:href="#Degradado_sin_nombre_925"/><linearGradient id="Degradado_sin_nombre_925-6" x1="262.06" y1="432.24" x2="605.39" y2="325.38" xlink:href="#Degradado_sin_nombre_925"/><style>.cls-10{fill:#9b46ff}</style></defs><g id="Layer_2" data-name="Layer 2"><g id="Layer_1-2" data-name="Layer 1"><path style="fill:url(#Degradado_sin_nombre_928)" d="M146.38 232.79 29.93 116.35l54.96-54.97 170.89 171.41h-109.4z"/><path style="fill:url(#Degradado_sin_nombre_927)" d="M84.71 61.57 146.2.09h109.39L139.32 116.35 84.71 61.57z"/><path style="fill:url(#Degradado_sin_nombre_926)" d="m379.08.18-.1-.18-178 178.01 54.61 54.78L488.33.04 379.08.18z"/><path style="fill:url(#Degradado_sin_nombre_925)" d="M605.06 116.49 488.61.04h-.28l-54.64 54.65L550.1 171.45l54.96-54.96z"/><path style="fill:url(#Degradado_sin_nombre_924)" d="m550.14 171.4-61.48 61.48h-109.4l116.27-116.26 54.61 54.78z"/><path d="m50.34 308.58-12.23-.17a14.23 14.23 0 0 0-5.13-4.5 15.38 15.38 0 0 0-6.81-1.57 15 15 0 0 0-5.89 1.08 14.68 14.68 0 0 0-5 3.31 17 17 0 0 0-.58 23.39 14.62 14.62 0 0 0 11 4.91 15.67 15.67 0 0 0 6.78-1.31 12.1 12.1 0 0 0 4.93-4l12.27.17A27.21 27.21 0 0 1 40 341.52a25.3 25.3 0 0 1-14.32 3.74A25.38 25.38 0 0 1 15 342.9a26.14 26.14 0 0 1-8.64-6.69 25 25 0 0 1-4.85-8.31A28.66 28.66 0 0 1 0 318a25.73 25.73 0 0 1 2.18-10.11 27.55 27.55 0 0 1 6.1-8.66 25.8 25.8 0 0 1 8.35-5.42 25.6 25.6 0 0 1 9.82-1.81 25.1 25.1 0 0 1 14.3 4.21q5.91 4.14 9.59 12.37Z" style="fill:url(#linear-gradient)"/><path d="M54 318.93a27 27 0 0 1 1.23-7.93 25.3 25.3 0 0 1 3.44-7 26.24 26.24 0 0 1 22.19-11.23 25.3 25.3 0 0 1 9.8 2.11 26.19 26.19 0 0 1 8.34 5.79 26.89 26.89 0 0 1 5.72 8.69 25.8 25.8 0 0 1 1.86 10.09 28 28 0 0 1-2 10.27 25.23 25.23 0 0 1-5.58 8.47 25.6 25.6 0 0 1-8.68 5.87A25.86 25.86 0 0 1 80 346a26.83 26.83 0 0 1-10.52-2.18 24.6 24.6 0 0 1-8.48-6.16 26.21 26.21 0 0 1-5.32-8.59A27.5 27.5 0 0 1 54 318.93Zm10.51-.2a17.06 17.06 0 0 0 1 6.16 16.33 16.33 0 0 0 3.16 5.25 16.78 16.78 0 0 0 5.29 4 14.56 14.56 0 0 0 6.17 1.47A15 15 0 0 0 91.47 331a16.59 16.59 0 0 0 4.71-11.86 15.23 15.23 0 0 0-4.43-11.22 15 15 0 0 0-11-4.78 15.62 15.62 0 0 0-11.45 4.45 15.11 15.11 0 0 0-4.79 11.14Z" style="fill:url(#Degradado_sin_nombre_927-2)"/><path d="M110.66 319.71a27.32 27.32 0 0 1 1.24-7.94 25.56 25.56 0 0 1 3.43-7 26.27 26.27 0 0 1 9.65-8.4 26.53 26.53 0 0 1 12.55-2.83 25.3 25.3 0 0 1 9.8 2.11 26.3 26.3 0 0 1 8.38 5.77 26.86 26.86 0 0 1 5.71 8.69 25.79 25.79 0 0 1 1.87 10.08 28.22 28.22 0 0 1-2 10.28 26.95 26.95 0 0 1-14.34 14.34 25.78 25.78 0 0 1-10.27 2 26.8 26.8 0 0 1-10.52-2.18 24.86 24.86 0 0 1-8.46-6.17 26.29 26.29 0 0 1-5.31-8.6 27.42 27.42 0 0 1-1.73-10.15Zm10.52-.2a17.06 17.06 0 0 0 1 6.16 16.51 16.51 0 0 0 3.16 5.25 17 17 0 0 0 5.29 4 14.6 14.6 0 0 0 6.17 1.47 14.92 14.92 0 0 0 11.33-4.63 16.6 16.6 0 0 0 4.72-11.85 15.27 15.27 0 0 0-4.43-11.22 15 15 0 0 0-11-4.78 15.59 15.59 0 0 0-11.42 4.48 15.11 15.11 0 0 0-4.82 11.12Z" style="fill:url(#Degradado_sin_nombre_927-3)"/><path d="m195.2 346.58-26-.36.71-51.18 9.91.13-.58 42.19 16.07.22Z" style="fill:url(#Degradado_sin_nombre_927-4)"/><path class="cls-10" d="M247.67 294.05v9H238v42.18h-10v-42.18h-9.63v-9ZM280 345.23h-27.62v-51.18H280v9h-17.71v11.67H280v8.86h-17.71v12.65H280Z"/><path d="M336.47 309.23h-12.23a14.46 14.46 0 0 0-5.19-4.43 15.35 15.35 0 0 0-6.84-1.47 15 15 0 0 0-5.87 1.16 14.7 14.7 0 0 0-4.92 3.37 16.6 16.6 0 0 0-3.53 5.36 16.17 16.17 0 0 0-1.25 6.24 16.46 16.46 0 0 0 4.52 11.8 14.62 14.62 0 0 0 11 4.76 15.88 15.88 0 0 0 6.77-1.4 12.1 12.1 0 0 0 4.87-4.08h12.27a27.18 27.18 0 0 1-9.56 11.78 27.38 27.38 0 0 1-24.86 1.68 26.09 26.09 0 0 1-8.74-6.58 25 25 0 0 1-5-8.24 28.75 28.75 0 0 1-1.68-9.9 25.66 25.66 0 0 1 2-10.14 27.35 27.35 0 0 1 6-8.73 25.89 25.89 0 0 1 8.28-5.54 27.19 27.19 0 0 1 24.2 2.13q5.97 4 9.76 12.23Z" style="fill:url(#Degradado_sin_nombre_926-2)"/><path d="M352.54 324.42v20.81h-10v-51.18h10v20.74H369v-20.74h10v51.18h-10v-20.81Z" style="fill:url(#Degradado_sin_nombre_926-3)"/><path d="M425.87 345.23h-17.4v-51.18h17.12a36.24 36.24 0 0 1 11.15 1.4 20.1 20.1 0 0 1 7.59 4.71 22.83 22.83 0 0 1 5.48 8.51 31.74 31.74 0 0 1 1.87 11.22 28.87 28.87 0 0 1-2.6 12.46 23.14 23.14 0 0 1-7.56 9 17.9 17.9 0 0 1-6.3 3 40 40 0 0 1-9.35.88Zm-.63-8.78q8.33 0 12.27-4.08t3.94-12.76q0-8-4.31-12.41t-12-4.43h-6.54v33.68Z" style="fill:url(#linear-gradient-2)"/><path d="M485.43 345.23h-27.64v-51.18h27.64v9h-17.72v11.67h17.72v8.86h-17.72v12.65h17.72Z" style="fill:url(#Degradado_sin_nombre_925-2)"/><path d="M490.7 329.34h9.14v.74a7.62 7.62 0 0 0 1.69 5.18 5.64 5.64 0 0 0 4.5 1.95 6.35 6.35 0 0 0 4.78-1.81 6.73 6.73 0 0 0 1.76-4.9q0-5-7.1-7.1l-1.45-.46q-6-1.86-8.85-5.29a13 13 0 0 1-2.89-8.67q0-7.2 4-11.56a13.72 13.72 0 0 1 10.63-4.42 13 13 0 0 1 9.91 3.88q3.69 3.88 4.11 10.88h-9.07v-.42a5.45 5.45 0 0 0-1.47-4 5.18 5.18 0 0 0-3.87-1.51 5 5 0 0 0-3.88 1.54 6 6 0 0 0-1.43 4.22 6.08 6.08 0 0 0 .3 2 4.62 4.62 0 0 0 .93 1.56c1 1.06 3 2 6.19 2.92 1.41.38 2.48.69 3.23.95a15.77 15.77 0 0 1 7.79 5.13 13.82 13.82 0 0 1 2.52 8.55q0 7.9-4.4 12.71a15.09 15.09 0 0 1-11.67 4.79 14.26 14.26 0 0 1-11.1-4.59q-4.2-4.61-4.3-12.27Z" style="fill:url(#Degradado_sin_nombre_925-3)"/><path d="M528.35 345.23v-51.18h10v51.18Z" style="fill:url(#Degradado_sin_nombre_925-4)"/><path d="M597.3 318v1.73a29.57 29.57 0 0 1-.6 6.13 22.67 22.67 0 0 1-1.83 5.33 27.16 27.16 0 0 1-9.86 11.12 27.27 27.27 0 0 1-24.77 1.69 26.71 26.71 0 0 1-8.86-6.58 25.75 25.75 0 0 1-5-8.29 28.07 28.07 0 0 1-1.72-9.85 25.34 25.34 0 0 1 2.07-10.14 27.39 27.39 0 0 1 6.08-8.73 24.66 24.66 0 0 1 8.46-5.59A28 28 0 0 1 571.6 293a25 25 0 0 1 14.27 4 25.83 25.83 0 0 1 9.28 11.81H583a14.32 14.32 0 0 0-5.22-4.16 15.84 15.84 0 0 0-6.74-1.39A14.89 14.89 0 0 0 559.9 308a16.88 16.88 0 0 0 .05 23.15 15.25 15.25 0 0 0 11.36 4.85 15.25 15.25 0 0 0 14.14-9.35h-20.11V318Z" style="fill:url(#Degradado_sin_nombre_925-5)"/><path d="M613.43 345.23h-9.84v-51.18h9.49l21.16 32.69v-32.69h9.81v51.18h-9.28l-21.34-33.68Z" style="fill:url(#Degradado_sin_nombre_925-6)"/></g></g></svg>